<?xml version="1.0" encoding="UTF-8" standalone="no"?>
<svg xmlns:rdf="http://www.w3.org/1999/02/22-rdf-syntax-ns#" xmlns="http://www.w3.org/2000/svg" height="71.9396" width="208.301" version="1.1" xmlns:cc="http://creativecommons.org/ns#" xmlns:xlink="http://www.w3.org/1999/xlink" xmlns:dc="http://purl.org/dc/elements/1.1/">
 <g transform="translate(-241.491 -575.972)">
  <path d="m261.076 614.895c-1.6235 0.52738-3.186 1.37938-4.6875 2.57663-2.69925 2.11087-4.05863 4.44437-4.05863 6.94 0 0.77149 0.24363 1.37987 0.7305 1.80562 0.46675 0.42675 1.13675 0.64988 1.96826 0.64988 1.90774 0 3.93699-0.66938 6.04737-1.98875 0.52737-0.32475 1.07525-0.71 1.603-1.11625 2.69875-2.08975 5.09325-4.84963 7.14262-8.33975-0.97362-0.40588-1.82625-0.69001-2.57662-0.87213-0.751-0.18312-1.5225-0.28462-2.2525-0.28462-1.33987 0-2.65825 0.20312-3.9165 0.62937zm164.08 10.5312c0.10125-0.14212 0.22375-0.26413 0.385-0.38525 0.4675-0.32475 1.075-0.48737 1.82625-0.48737 0.975 0 2.17125 0.50737 3.53125 1.502 1.38 1.01412 2.6375 1.522 3.815 1.522 1.52125 0 2.6175-0.50788 3.26625-1.522 0.65-1.03513 0.975-2.82075 0.975-5.37788 0-0.669-0.1025-1.42-0.305-2.191-0.1825-0.7915-0.48625-1.6645-0.85125-2.65812l-9.11125 5.68162-0.91375-0.67 9.7-6.10788v-0.18212c0-1.31937 0.405-2.3945 1.2375-3.166 0.83125-0.771 1.96875-1.17675 3.43-1.17675 0.73 0 1.33875 0.14212 1.82625 0.40575 0.50625 0.26362 0.75 0.60888 0.75 1.01463 0 0.50687-0.325 0.97412-0.97375 1.42037-0.65 0.44637-2.15125 1.07575-4.46375 1.88725 2.21125 0.93362 3.855 1.92775 4.91 3.0235 1.075 1.09563 1.6025 2.31288 1.6025 3.67275 0 2.06937-1.31875 3.7745-3.89625 5.11387-2.59625 1.33876-5.86375 1.98826-9.78 1.98826-2.2525 0-4.0375-0.20313-5.31625-0.62888-0.79125-0.26425-1.34-0.609-1.64375-0.99475-0.2025-0.24312-0.28375-0.52725-0.28375-0.8115 0-0.32413 0.0812-0.60888 0.28375-0.8725zm0-7.34525c0.1825-0.34525 0.26375-0.731 0.26375-1.09612 0-0.44638-0.0812-0.85213-0.26375-1.21788-0.305-0.60838-0.8725-1.11563-1.66375-1.52138-1.27875-0.6695-3.04375-0.99425-5.31625-0.99425-1.5625 0-3.085 0.12163-4.56625 0.38526-2.73875 0.48737-5.3375 1.441-7.77125 2.84087-3.71375 2.17088-5.58125 4.48488-5.58125 6.9805 0 0.36525 0.0412 0.73038 0.1025 1.05512-1.1775 0.81201-2.375 1.4815-3.6125 2.00925-1.31875 0.58788-2.33375 0.87213-3.04375 0.87213-0.345 0-0.65-0.0811-0.8925-0.22262-0.24375-0.14263-0.36625-0.30475-0.36625-0.50788 0-0.24313 0.0825-0.60837 0.285-1.09563 0.2025-0.48687 0.44625-1.01475 0.77125-1.62312l2.07-3.79488c0.50625-0.85212 0.83125-1.58249 1.03375-2.15087 0.20375-0.58837 0.305-1.13625 0.305-1.64362 0-0.85251-0.5075-1.563-1.50125-2.09025-0.995-0.54788-2.27375-0.81163-3.85625-0.81163-2.6175 0-5.1125 0.751-7.5075 2.273-2.395 1.5215-5.07375 4.07863-8.07625 7.67037l4.87-9.82125-7.5075 0.68951-5.905 13.8799-0.1425 0.34475h6.4125c2.82-4.22075 5.53875-7.46737 8.11625-9.78038 2.6175-2.31337 4.80875-3.49062 6.615-3.49062 0.60875 0 1.055 0.1015 1.38 0.30513 0.305 0.20262 0.4675 0.46587 0.4675 0.8315 0 0.22362-0.0612 0.52787-0.20375 0.89262-0.1425 0.38575-0.44625 1.03512-0.9125 1.94825l-2.375 4.6875c-0.30375 0.66938-0.48625 1.15675-0.58875 1.481-0.10125 0.34513-0.16125 0.62937-0.16125 0.852 0 0.873 0.40625 1.5225 1.21625 1.94825 0.8125 0.42625 2.01 0.64937 3.55125 0.64937 1.74625 0 3.49125-0.32462 5.23625-0.93312 1.46125-0.52775 3.0025-1.33925 4.6675-2.3745 0.34375 0.731 0.93375 1.33938 1.72375 1.82625 1.44125 0.893 3.53125 1.35987 6.21 1.35987 1.6225 0 3.2875-0.18262 4.97125-0.54787 0.5275-0.12162 1.035-0.24362 1.5625-0.38575 2.2525-0.62888 4.60625-1.5825 7.1225-2.88137l-0.56875-0.58788c-2.04875 0.93313-4.0175 1.6635-5.925 2.17088-0.75125 0.18262-1.48125 0.34475-2.19125 0.46637-1.035 0.1825-2.00875 0.26363-2.9225 0.26363-1.4 0-2.495-0.22313-3.22625-0.71-0.75125-0.46676-1.13625-1.17675-1.2175-2.13038 2.76-0.40575 5.215-0.832 7.36625-1.27875 2.9625-0.62888 5.3575-1.27837 7.1625-1.98825 2.33375-0.89312 3.795-1.88725 4.38375-3.003zm-11.5462 3.71288c1.2175-0.38526 2.2925-0.81151 3.2875-1.29826 2.71875-1.33937 4.07875-2.75987 4.07875-4.28175 0-0.6495-0.24375-1.15675-0.73-1.50149-0.4875-0.34525-1.21875-0.50738-2.1725-0.50738-1.48125 0-2.9825 0.36475-4.46375 1.07525-0.81125 0.38575-1.6025 0.873-2.415 1.48138-2.2725 1.72512-3.91625 3.89599-4.95125 6.57425 2.80125-0.36476 5.25625-0.87201 7.36625-1.542zm-46.1838-1.23775c0.10125-0.40576 0.16125-0.791 0.16125-1.19725 0-0.40575-0.06-0.791-0.16125-1.17676-0.325-1.23787-1.1775-2.27249-2.5775-3.125-1.80625-1.11624-4.16-1.68412-7.02125-1.68412-1.11625 0-2.21125 0.081-3.2875 0.20312-3.0025 0.38526-5.74213 1.29838-8.19762 2.73926-1.17676 0.69-2.15088 1.39987-2.92188 2.10987-1.44087 1.35988-2.15088 2.80075-2.15088 4.30225 0 1.70462 0.71001 3.044 2.15088 4.03813 0.18262 0.1215 0.38575 0.24362 0.58837 0.34462 1.80613 1.01475 4.42388 1.502 7.89363 1.502 0.8925 0 1.785-0.041 2.6375-0.14213 2.9825-0.32462 5.7225-1.23775 8.21875-2.73974 2.6575-1.60301 4.22-3.32763 4.6675-5.17425zm-12.8862 6.43262c1.25875-0.58838 2.47625-1.542 3.6525-2.84087 2.15125-2.3945 3.2475-4.97163 3.2475-7.73138 0-0.58787-0.345-1.11575-1.035-1.542-0.69-0.44637-1.5225-0.6695-2.45625-0.6695-1.03375 0-1.9275 0.12162-2.67875 0.38525-0.2425 0.0816-0.48625 0.16263-0.73 0.28425-0.5075 0.24363-0.99375 0.56838-1.48125 0.95413-1.5625 1.27824-2.84 2.77974-3.87563 4.52487-0.99412 1.74513-1.50087 3.30763-1.50087 4.7075 0 0.7915 0.32412 1.42038 0.99362 1.92775 0.64938 0.48725 1.54288 0.7305 2.63788 0.7305 1.09625 0 2.17125-0.24325 3.22625-0.7305zm-11.1195-16.8422h2.15087v0.954h-7.14262l-7.0415 13.6969c-0.22312 0.38575-0.36525 0.68987-0.44625 0.89249-0.10163 0.22313-0.14212 0.38575-0.14212 0.46688 0 0.30463 0.10112 0.54775 0.30475 0.71038 0.18262 0.16212 0.46624 0.24312 0.832 0.24312 1.07525 0 3.10449-0.66937 6.08737-2.00875 0.7305-0.32425 1.29837-0.58838 1.68412-0.7505l0.71001 0.7505c-2.49563 1.25788-4.606 2.17138-6.31063 2.75975-1.74513 0.58888-3.26713 0.87263-4.56538 0.87263-0.48687 0-0.95412-0.02-1.38037-0.0811-0.83163-0.1015-1.542-0.32462-2.15088-0.64937-0.89262-0.50738-1.35937-1.13625-1.35937-1.90726 0-0.38574 0.0405-0.73087 0.122-1.05512 0.0606-0.34525 0.18212-0.6495 0.30425-0.95412l3.084-6.47313 3.1255-6.51325h-3.0845v-0.954h3.61175l5.82375-10.9165 5.78325-0.75125 1.21725-0.1625-1.21725 2.435-4.667 9.39525h4.667zm-15.2598-4.484c2.61813-2.47625 4.82963-4.83 6.65625-7.1225 4.13912-5.175 6.2295-9.76125 6.2295-13.7788 0-1.66375-0.32475-2.86125-0.97412-3.6325-0.649-0.77125-1.66413-1.15625-3.0645-1.15625-2.92138 0-5.86376 1.38-8.84713 4.11875-1.07525 0.995-2.15087 2.1725-3.22613 3.53125-4.05862 5.09375-8.52287 13.2512-13.393 24.4721l-3.28713 7.40625-5.82325 3.49025 3.55075 0.97412c-2.96288 5.88475-5.23537 10.2881-6.83838 13.1895-0.02 0.0205-0.02 0.0205-0.02 0.041-0.79201 1.42038-1.52201 2.67825-2.21238 3.77438-0.71 1.15625-1.35888 2.13037-1.94775 2.94199l1.94775-0.38524 2.23237-0.44638 3.61188-0.73088 9.63862-18.5264c2.55713-0.54787 4.97163-1.19737 7.16313-1.92775 2.21187-0.7305 4.28175-1.5825 6.16887-2.53662l-0.7305-0.8115c-1.86712 0.9135-3.81487 1.7245-5.82362 2.3945-2.02937 0.66987-4.13975 1.21725-6.37163 1.664l3.51026-7.0415c4.586-3.44963 8.543-6.75725 11.8501-9.90188zm0-14.8538c0.46725-0.77125 0.9135-1.5025 1.33988-2.17125 3.28699-5.155 5.98575-7.75125 8.13662-7.75125 0.56788 0 0.97363 0.2225 1.25838 0.64875 0.26362 0.42625 0.38524 1.075 0.38524 1.9475 0 3.6325-1.90724 8.05625-5.76274 13.2512-1.522 2.05-3.30763 4.18-5.35738 6.35125-3.1045 3.3275-6.81738 6.77725-11.0991 10.369 4.34226-9.88275 8.05563-17.4515 11.0991-22.6452zm-29.0171 34.5975c0.34475-0.16262 0.69-0.34525 1.03513-0.52787l-0.56838-0.58788c-0.16249 0.0605-0.32462 0.14162-0.46675 0.20263-0.751 0.34474-1.5015 0.64937-2.23237 0.93312-1.09525 0.40575-2.17088 0.751-3.22613 1.03513-0.751 0.18262-1.48137 0.34475-2.19137 0.46637-1.03463 0.1825-2.00875 0.26363-2.92238 0.26363-1.39987 0-2.49562-0.22313-3.22662-0.71-0.75038-0.46676-1.13563-1.17675-1.21675-2.13038 2.75925-0.40575 5.21438-0.832 7.36575-1.27875 2.08987-0.44637 3.896-0.89262 5.4175-1.37937 0.62937-0.18263 1.21775-0.38626 1.74562-0.60888 0.162-0.0611 0.32463-0.12162 0.48675-0.18262 2.77976-1.15676 4.15963-2.45563 4.15963-3.9165 0-1.17675-0.64887-2.08988-1.92725-2.73925-0.62937-0.34526-1.38038-0.5885-2.23238-0.75101-0.66937-0.12162-1.41987-0.20262-2.23237-0.24325h-0.85212c-1.56201 0-3.08438 0.12163-4.56538 0.38526-2.73925 0.48737-5.33688 1.441-7.752 2.84087-3.73338 2.17088-5.60013 4.48488-5.60013 6.9805 0 0.54787 0.0811 1.05512 0.22325 1.522-0.16262 0.081-0.32475 0.1625-0.50787 0.26363-2.61713 1.44087-4.6665 2.15087-6.14788 2.15087-0.28425 0-0.52737-0.0811-0.7305-0.20312-0.22312-0.12163-0.32475-0.28376-0.32475-0.46638 0-0.20262 0.12163-0.56825 0.36525-1.11612 0.14213-0.26376 0.24313-0.44676 0.28413-0.56788l19.4195-40.2798-7.44725 1.35875-12.7231 27.7604c-1.44099-0.18263-2.63824-0.30426-3.57137-0.38576-0.95413-0.0811-1.74513-0.12162-2.4145-0.12162-1.19725 0-2.354 0.081-3.49025 0.20312-3.57125 0.42575-6.81838 1.50151-9.76075 3.24613-3.8755 2.29338-5.82375 4.8095-5.82375 7.58938 0 1.44087 0.58837 2.51612 1.72512 3.267 1.15625 0.751 2.82038 1.13624 5.01175 1.13624 2.65813 0 5.29638-0.68987 7.91401-2.06924 0.30424-0.16263 0.62899-0.34526 0.93362-0.50738 2.2725-1.33937 4.38287-3.145 6.35112-5.398l-1.11624 2.15088-0.12163 0.24375c-0.68988 1.39987-1.03462 2.374-1.03462 2.94237 0 0.852 0.40574 1.50138 1.25774 1.94775 0.85213 0.46675 2.09038 0.68988 3.71388 0.68988 1.4405 0 2.942-0.28413 4.48437-0.832 1.23788-0.44625 2.63776-1.11575 4.22025-2.04938 0.34526 0.54788 0.85251 1.01525 1.4815 1.4 1.44088 0.893 3.53075 1.35987 6.20938 1.35987 1.62313 0 3.28762-0.18262 4.97175-0.54787 0.52737-0.12162 1.03462-0.24362 1.562-0.38575 1.25875-0.34475 2.53663-0.7915 3.8555-1.33887 0.73087-0.30475 1.46137-0.64938 2.23237-1.01463zm-2.23237-6.1685c1.29925-0.95413 1.94825-1.96875 1.94825-3.02388 0-0.6495-0.24375-1.15675-0.7305-1.50149-0.32475-0.22313-0.71-0.36526-1.21775-0.44675-0.28375-0.0401-0.60838-0.0606-0.95363-0.0606-1.4815 0-2.98287 0.36475-4.46387 1.07525-0.812 0.38575-1.603 0.873-2.415 1.48138-2.2725 1.72512-3.91613 3.89599-4.95075 6.57425 2.80025-0.36476 5.25537-0.87201 7.36575-1.542 1.21725-0.38526 2.293-0.81151 3.28712-1.29826 0.832-0.40587 1.54251-0.83212 2.13038-1.25787" fill-rule="evenodd" fill="#231f20"/>
 </g>
</svg>
